<?xml version="1.0" standalone="no"?>
<!DOCTYPE svg PUBLIC "-//W3C//DTD SVG 20010904//EN"
 "http://www.w3.org/TR/2001/REC-SVG-20010904/DTD/svg10.dtd">
<svg version="1.0" xmlns="http://www.w3.org/2000/svg"
 width="409.600000pt" height="409.600000pt" viewBox="0 0 409.600000 409.600000"
 preserveAspectRatio="xMidYMid meet">
<metadata>
Created by potrace 1.13, written by Peter Selinger 2001-2015
</metadata>
<g transform="translate(0.000000,409.600000) scale(0.080000,-0.080000)"
fill="#000000" stroke="none">
<path d="M84 5036 c-55 -55 -74 -81 -74 -100 0 -22 3 -25 18 -17 19 11 182
175 182 185 0 3 -12 6 -26 6 -19 0 -46 -20 -100 -74z"/>
<path d="M203 4958 c-174 -172 -196 -198 -191 -231 3 -19 32 5 192 163 103
102 192 193 197 203 8 14 5 17 -17 17 -21 0 -60 -33 -181 -152z"/>
<path d="M303 4858 c-140 -139 -264 -265 -275 -281 -10 -15 -18 -37 -16 -50 3
-18 49 23 292 263 158 157 292 293 297 303 8 14 5 17 -17 17 -22 0 -75 -47
-281 -252z"/>
<path d="M402 4758 c-194 -194 -362 -365 -373 -381 -11 -15 -19 -37 -17 -50 4
-18 67 40 392 363 213 212 392 393 397 403 8 14 5 17 -18 17 -22 0 -89 -62
-381 -352z"/>
<path d="M502 4658 c-249 -249 -462 -465 -473 -481 -11 -15 -19 -37 -17 -50 4
-18 84 57 492 463 268 267 492 493 497 503 8 14 5 17 -18 17 -22 0 -104 -76
-481 -452z"/>
<path d="M602 4558 c-304 -304 -562 -565 -573 -581 -11 -15 -19 -37 -17 -50 4
-18 101 75 592 563 323 322 592 593 597 603 8 14 5 17 -18 17 -23 0 -118 -91
-581 -552z"/>
<path d="M702 4458 c-359 -359 -662 -665 -673 -681 -11 -15 -19 -37 -17 -50 4
-18 118 92 692 663 378 377 692 693 697 703 8 14 5 17 -18 17 -23 0 -133 -106
-681 -652z"/>
<path d="M802 4358 c-414 -414 -762 -765 -773 -781 -11 -15 -19 -37 -17 -50 4
-18 136 109 792 763 433 432 792 793 797 803 8 14 5 17 -18 17 -23 0 -148
-120 -781 -752z"/>
<path d="M902 4258 c-469 -469 -862 -865 -873 -881 -11 -15 -19 -37 -17 -50 4
-18 153 126 892 863 488 487 892 893 897 903 8 14 5 17 -18 17 -23 0 -162
-135 -881 -852z"/>
<path d="M1002 4158 c-524 -524 -962 -965 -973 -981 -11 -15 -19 -37 -17 -50
4 -18 170 144 992 963 543 542 992 993 997 1003 8 14 5 17 -18 17 -23 0 -177
-149 -981 -952z"/>
<path d="M2052 5007 c-59 -56 -142 -129 -185 -161 -82 -62 -150 -132 -199
-206 -17 -25 -397 -412 -844 -860 -680 -681 -814 -820 -814 -843 0 -15 3 -27
7 -27 4 0 311 303 681 673 479 477 668 660 654 632 -10 -22 -25 -65 -32 -95
l-12 -55 -649 -650 c-540 -541 -649 -655 -649 -678 0 -15 3 -27 7 -27 4 0 297
289 650 642 l643 643 0 -65 0 -65 -650 -650 c-541 -541 -650 -655 -650 -678 0
-15 3 -27 7 -27 4 0 300 293 658 650 l651 651 13 -52 13 -51 -671 -672 c-563
-563 -671 -676 -671 -699 0 -23 3 -26 18 -18 9 5 316 309 681 675 l665 665 24
-41 24 -40 -706 -707 c-588 -589 -706 -711 -706 -734 0 -15 3 -27 7 -27 4 0
330 322 724 716 l717 716 33 -23 c19 -13 36 -25 39 -27 2 -1 -339 -346 -758
-765 -636 -636 -762 -767 -762 -790 0 -15 3 -27 7 -27 4 0 357 349 784 776
427 427 779 772 781 768 3 -5 11 -26 18 -48 l12 -38 -801 -802 c-669 -669
-801 -806 -801 -829 0 -15 3 -27 7 -27 4 0 369 361 810 802 441 441 804 800
805 798 2 -3 12 -23 21 -44 l18 -39 -830 -831 c-695 -695 -831 -836 -831 -859
0 -15 3 -27 7 -27 4 0 383 375 841 833 459 457 836 828 838 822 2 -5 13 -23
23 -40 l19 -30 -864 -865 c-728 -729 -864 -870 -864 -893 0 -23 3 -26 18 -18
9 5 402 395 872 865 470 471 858 856 862 856 3 0 16 -16 29 -36 l22 -36 -354
-355 c-195 -195 -397 -389 -449 -430 -128 -102 -315 -287 -408 -403 -42 -52
-192 -212 -334 -356 -208 -210 -258 -266 -258 -287 0 -15 3 -27 7 -27 4 0 87
80 185 177 l178 177 -66 -129 c-62 -122 -72 -137 -185 -251 -90 -93 -119 -128
-119 -148 0 -14 3 -26 6 -26 4 0 46 39 95 87 49 48 89 85 89 82 0 -2 -13 -43
-28 -91 -25 -77 -36 -94 -95 -158 -46 -48 -67 -78 -67 -95 0 -14 2 -25 5 -25
3 0 27 20 53 44 l48 45 -16 -78 c-12 -63 -22 -85 -53 -121 -55 -64 -51 -110 6
-61 17 14 18 12 11 -55 -5 -49 -14 -78 -31 -100 -12 -17 -23 -41 -23 -53 0
-19 3 -20 20 -11 19 10 20 8 20 -52 0 -47 -5 -69 -20 -88 -11 -14 -20 -36 -20
-49 0 -23 1 -23 25 -7 24 16 26 15 54 -16 l29 -33 -31 -35 c-30 -34 -31 -35
-8 -38 12 -2 37 7 56 22 28 21 45 26 95 26 l60 0 -16 -25 c-16 -24 -16 -25 6
-25 13 0 38 11 56 25 27 20 44 25 94 25 l60 0 -16 -25 c-16 -24 -16 -25 6 -25
13 0 38 11 56 25 27 20 44 25 94 25 l60 0 -16 -25 c-16 -24 -16 -25 6 -25 13
0 38 11 56 25 27 20 44 25 94 25 l60 0 -16 -25 c-16 -24 -16 -25 6 -25 13 0
38 11 56 25 27 20 44 25 94 25 l60 0 -16 -25 c-16 -24 -16 -25 6 -25 13 0 38
11 56 25 27 20 44 25 94 25 l60 0 -16 -25 c-16 -24 -16 -25 6 -25 13 0 38 11
56 25 27 20 44 25 94 25 l60 0 -16 -25 c-16 -24 -16 -25 6 -25 13 0 38 11 56
25 27 20 44 25 94 25 l60 0 -16 -25 c-16 -24 -16 -25 6 -25 13 0 38 11 56 25
27 20 44 25 94 25 l60 0 -16 -25 c-16 -24 -16 -25 6 -25 13 0 38 11 56 25 27
20 44 25 94 25 l60 0 -16 -25 c-16 -24 -16 -25 6 -25 13 0 38 11 56 25 27 20
44 25 94 25 l60 0 -16 -25 c-16 -24 -16 -25 6 -25 13 0 38 11 56 25 27 20 44
25 94 25 l60 0 -16 -25 c-16 -24 -16 -25 6 -25 13 0 38 11 56 25 27 20 44 25
94 25 l60 0 -16 -25 c-16 -24 -16 -25 6 -25 13 0 38 11 56 25 27 20 44 25 94
25 l60 0 -16 -25 c-16 -24 -16 -25 6 -25 13 0 38 11 56 25 27 20 44 25 94 25
l60 0 -16 -25 c-16 -24 -16 -25 6 -25 13 0 38 11 56 25 27 20 44 25 94 25 l60
0 -16 -25 c-16 -24 -16 -25 6 -25 13 0 38 11 56 25 27 20 44 25 94 25 l60 0
-16 -25 c-16 -24 -16 -25 6 -25 13 0 38 11 56 25 27 20 44 25 94 25 l60 0 -16
-25 c-16 -24 -16 -25 6 -25 13 0 38 11 56 25 27 20 44 25 94 25 l60 0 -16 -25
c-16 -24 -16 -25 6 -25 13 0 38 11 56 25 27 20 44 25 94 25 l60 0 -16 -25
c-16 -24 -16 -25 6 -25 13 0 38 11 56 25 27 20 44 25 94 25 l60 0 -16 -25
c-16 -24 -16 -25 6 -25 13 0 38 11 56 25 27 20 44 25 94 25 l60 0 -16 -25
c-16 -24 -16 -25 6 -25 13 0 38 11 56 25 27 20 44 25 94 25 l60 0 -16 -25
c-16 -24 -16 -25 6 -25 13 0 38 11 56 25 27 20 44 25 94 25 l60 0 -16 -25
c-16 -24 -16 -25 8 -25 51 0 238 187 238 238 0 24 -1 24 -25 8 l-25 -16 0 60
c0 50 5 67 26 95 14 19 24 44 22 55 l-3 22 -26 -21 -26 -20 -6 56 c-6 53 -4
58 29 96 19 22 34 51 34 64 0 29 -2 29 -44 -7 l-34 -31 -9 53 -9 53 48 53 c29
33 48 63 48 78 0 13 -2 24 -5 24 -3 0 -28 -21 -55 -46 l-49 -45 -10 38 c-6 21
-11 44 -11 52 0 7 29 45 65 82 44 47 65 77 65 94 0 14 -3 25 -6 25 -3 0 -37
-30 -74 -66 -37 -36 -70 -62 -73 -57 -2 4 -10 25 -17 46 l-12 38 91 94 c66 68
91 101 91 120 0 14 -3 25 -6 25 -4 0 -49 -41 -100 -92 l-93 -91 -19 44 -19 44
118 122 c90 92 119 128 119 147 0 14 -3 26 -7 26 -3 0 -61 -55 -129 -121
l-122 -121 -20 43 -19 44 148 151 c117 119 149 157 149 178 0 22 -3 25 -17 17
-10 -5 -81 -73 -158 -150 -77 -78 -142 -141 -146 -141 -3 0 -14 18 -24 40
l-18 41 181 183 c145 146 182 189 182 210 0 22 -3 25 -17 17 -10 -5 -97 -89
-193 -185 -96 -97 -178 -176 -181 -176 -4 0 -17 16 -29 36 l-21 37 220 222
c177 177 221 227 221 248 0 15 -3 27 -7 27 -4 0 -109 -102 -235 -227 -125
-125 -229 -225 -231 -222 -2 2 -14 19 -27 37 l-23 34 262 262 c211 212 261
268 261 289 0 15 -3 27 -7 27 -4 0 -128 -120 -276 -267 l-268 -268 -29 35 -29
35 305 306 c247 248 304 310 304 332 0 15 -3 27 -7 27 -4 0 -148 -141 -321
-312 l-313 -313 -30 35 -29 34 350 351 c289 290 350 356 350 378 0 23 -3 26
-17 18 -10 -5 -175 -167 -368 -360 l-349 -351 -33 32 -33 32 400 401 c329 330
400 406 400 428 0 15 -3 27 -7 27 -4 0 -192 -184 -418 -409 l-410 -410 -34 30
-34 31 452 452 c375 376 451 457 451 479 0 23 -3 26 -17 18 -10 -5 -220 -213
-468 -460 -247 -248 -453 -451 -457 -451 -3 0 -21 12 -38 27 l-32 26 506 506
c422 423 506 511 506 534 0 23 -3 26 -17 18 -10 -5 -245 -237 -523 -515 -278
-278 -509 -506 -515 -506 -5 0 -23 11 -40 24 l-30 25 562 563 c467 468 563
568 563 591 0 15 -3 27 -7 27 -4 0 -267 -259 -584 -576 l-576 -576 -41 23 -42
24 625 625 c524 524 625 630 625 653 0 23 -3 26 -17 18 -10 -5 -301 -293 -647
-639 l-629 -630 -36 21 c-20 11 -38 22 -40 24 -3 2 304 313 682 691 577 577
687 692 687 715 0 23 -3 26 -17 18 -10 -5 -330 -322 -712 -704 l-694 -695 -44
21 -43 21 755 756 c635 635 755 760 755 783 0 23 -3 26 -17 18 -10 -5 -360
-352 -778 -770 -600 -601 -765 -761 -785 -761 -39 0 -124 -44 -137 -71 -7 -13
-28 -58 -47 -99 -33 -73 -48 -89 -553 -593 l-520 -519 -18 47 -18 47 1437
1437 c1217 1217 1436 1441 1436 1464 0 23 -3 26 -17 18 -10 -5 -661 -654
-1448 -1440 l-1430 -1431 -22 43 -22 42 1470 1470 c1236 1237 1469 1475 1469
1498 0 15 -3 27 -7 27 -5 0 -670 -662 -1480 -1472 l-1472 -1472 -20 44 -20 45
1499 1500 c1262 1262 1500 1505 1500 1528 0 15 -3 27 -7 27 -5 0 -684 -676
-1510 -1502 -826 -826 -1504 -1500 -1507 -1498 -2 3 -11 23 -20 45 l-17 39
413 414 c329 329 430 425 498 470 105 69 257 220 329 327 42 62 249 275 937
965 739 740 884 890 884 913 0 15 -3 27 -7 27 -4 0 -382 -374 -839 -832 l-832
-831 43 109 c40 100 49 113 107 166 35 31 68 63 75 70 6 7 336 339 732 738
598 602 721 731 721 753 0 15 -3 27 -7 27 -4 0 -306 -298 -672 -662 -365 -365
-661 -655 -658 -646 3 9 11 45 17 80 l11 63 600 600 c329 330 599 604 599 608
0 4 -12 7 -27 7 -23 0 -125 -97 -600 -572 l-573 -573 0 65 0 65 491 490 c269
270 495 498 500 508 8 14 5 17 -18 17 -23 0 -108 -80 -508 -480 l-481 -480
-21 43 -21 44 420 419 c230 230 424 427 429 437 8 14 5 17 -18 17 -22 0 -98
-71 -442 -414 l-416 -415 -35 29 -35 29 378 378 c207 208 377 382 377 386 0 4
-12 7 -27 7 -22 0 -95 -68 -405 -377 -405 -404 -387 -390 -415 -322 -11 25 0
38 309 345 175 175 324 327 329 337 8 14 5 17 -17 17 -23 0 -84 -56 -339 -311
l-312 -310 -22 42 -22 42 260 262 c144 143 261 264 261 268 0 4 -12 7 -27 7
-21 0 -74 -48 -273 -245 l-247 -246 -28 36 -27 37 201 202 c110 111 201 205
201 209 0 4 -12 7 -26 7 -21 0 -67 -40 -218 -190 l-192 -190 -32 33 -32 33
141 139 c161 160 172 175 133 175 -20 0 -58 -31 -169 -141 l-144 -141 -36 27
-36 28 106 107 c58 59 105 110 105 114 0 3 -12 6 -26 6 -19 0 -52 -26 -127
-99 l-102 -99 -43 22 -42 21 61 60 c78 77 88 95 55 95 -18 0 -48 -21 -95 -66
l-70 -66 -38 12 c-21 7 -42 15 -46 17 -4 3 10 25 33 49 22 24 40 46 40 49 0 3
-11 5 -24 5 -13 0 -43 -18 -69 -40 -44 -39 -48 -41 -97 -34 -27 4 -50 9 -50
11 0 3 9 17 21 31 l21 27 -22 3 c-13 2 -37 -8 -59 -25 -31 -24 -43 -28 -93
-25 l-58 3 16 24 c16 24 15 25 -6 25 -13 0 -37 -11 -54 -24 -22 -16 -51 -25
-101 -31 -68 -7 -69 -6 -54 11 30 36 31 44 6 44 -14 0 -43 -17 -68 -39 -31
-27 -65 -44 -114 -58 -39 -11 -79 -24 -90 -28 -11 -5 6 19 38 53 31 33 57 63
57 66 0 3 -12 6 -26 6 -19 0 -53 -27 -132 -103z m93 -707 c-365 -366 -444
-440 -464 -438 -18 2 -27 11 -33 33 -7 29 3 41 400 438 l407 407 65 0 65 0
-440 -440z m594 424 c22 -5 -28 -58 -444 -474 l-469 -470 -33 32 -34 32 448
448 c488 488 441 450 532 432z m-379 -7 c0 -1 -117 -119 -260 -262 l-259 -259
15 57 c29 111 46 137 191 280 77 75 141 137 144 137 2 0 36 11 74 25 64 22 95
29 95 22z m517 -29 c18 -7 33 -15 33 -18 0 -3 -236 -241 -524 -529 l-524 -524
-11 54 -12 53 488 488 c268 268 494 488 502 488 8 0 30 -5 48 -12z m153 -83
c6 -7 -194 -214 -554 -574 l-563 -563 -17 48 -16 49 542 542 542 542 29 -17
c16 -9 32 -22 37 -27z m85 -75 l29 -31 -586 -586 -587 -587 -20 44 -20 45 572
573 c314 314 574 572 578 572 3 0 18 -14 34 -30z m105 -150 c0 -3 -265 -270
-589 -594 l-589 -589 -21 34 c-12 19 -21 38 -21 44 0 5 264 274 587 597 l588
588 22 -38 c13 -20 23 -39 23 -42z m-1672 25 c-7 -15 -29 -34 -48 -42 l-35
-14 44 45 c49 49 60 53 39 11z m1711 -132 l12 -47 -574 -574 -574 -574 -28 37
-28 36 584 585 c321 321 587 584 590 584 4 0 12 -21 18 -47z m31 -125 c0 -7 9
-24 20 -38 l19 -25 -552 -552 c-303 -304 -557 -553 -564 -553 -6 0 -22 14 -34
31 l-22 31 559 559 c307 307 562 559 566 559 5 0 8 -6 8 -12z m144 -104 c20
-3 36 -9 36 -13 0 -3 -256 -262 -569 -575 l-569 -569 -36 22 c-20 13 -36 26
-36 29 0 15 1116 1122 1127 1118 6 -3 28 -8 47 -12z m30 -131 c-8 -47 -10 -49
-58 -56 l-40 -6 49 49 c27 28 51 50 53 50 1 0 0 -17 -4 -37z m-220 -254 l-16
-74 -376 -378 c-402 -403 -378 -383 -449 -356 -27 10 -21 15 412 449 242 242
441 438 442 436 2 -2 -4 -37 -13 -77z m-81 -251 c-59 -145 -74 -166 -280 -369
-190 -189 -200 -197 -251 -208 -111 -23 -115 -29 228 314 179 179 326 325 327
325 1 0 -10 -28 -24 -62z m-1290 -521 l26 -34 -182 -180 -182 -180 -125 -62
-125 -62 275 276 c151 151 278 275 281 275 4 0 18 -15 32 -33z m92 -107 l29
-31 -137 -137 -138 -138 -44 20 -45 21 147 147 c81 82 150 148 154 148 3 0 18
-14 34 -30z m109 -96 l29 -26 -154 -154 c-84 -85 -157 -154 -160 -154 -3 0
-14 18 -24 41 l-19 40 140 140 c76 76 143 139 149 139 5 0 23 -12 39 -26z
m146 -103 c0 -9 -369 -376 -372 -371 -2 3 -12 23 -21 44 l-18 39 167 168 168
168 38 -21 c21 -12 38 -24 38 -27z m102 -39 l47 -18 -229 -229 -229 -229 -20
45 -19 44 201 203 c111 111 202 202 202 202 0 0 21 -8 47 -18z m83 -382 l-369
-369 -20 45 -19 46 309 309 c170 170 318 311 329 314 11 2 40 8 65 13 25 5 52
10 60 11 8 0 -151 -165 -355 -369z m98 343 l39 -6 -283 -283 -284 -284 -17 33
c-9 17 -17 39 -18 47 0 23 481 500 505 500 11 0 37 -3 58 -7z m712 -470 l-54
-117 -403 -403 c-222 -222 -406 -403 -409 -403 -4 0 -14 19 -24 42 l-16 42
478 478 c263 263 479 478 480 478 1 0 -23 -53 -52 -117z m-1691 70 c5 -13
-104 -128 -460 -483 l-467 -465 41 77 c94 177 131 223 419 510 233 233 291
285 362 328 46 27 87 50 92 50 4 0 10 -8 13 -17z m2148 -16 l38 -22 -116 -115
c-69 -70 -111 -105 -105 -90 45 120 119 250 140 250 3 0 23 -10 43 -23z m158
-101 c0 -1 -118 -118 -261 -261 -144 -143 -259 -255 -256 -250 3 6 26 57 52
115 l46 105 171 172 171 171 39 -25 c21 -14 38 -26 38 -27z m-2255 2 l16 -42
-553 -553 c-304 -304 -554 -549 -556 -544 -1 4 11 46 28 92 l30 84 503 503
c276 276 505 502 508 502 4 0 14 -19 24 -42z m2335 -65 l31 -28 -401 -400
-401 -400 55 120 55 119 308 308 c169 169 311 308 315 308 4 0 21 -12 38 -27z
m-2261 -108 c1 -6 -278 -289 -619 -630 -342 -341 -619 -613 -616 -605 2 8 10
44 16 80 l13 65 586 588 586 587 17 -37 c9 -21 17 -43 17 -48z m2369 18 l33
-28 -536 -535 c-295 -294 -532 -524 -526 -510 5 14 28 66 50 115 l42 90 447
448 c246 246 449 447 452 447 3 0 20 -12 38 -27z m-943 -105 c-84 -190 -63
-163 -373 -472 l-290 -289 -22 43 -22 43 363 363 c200 200 365 364 366 364 1
0 -9 -24 -22 -52z m413 -685 c-364 -364 -664 -661 -666 -659 -1 2 18 50 43
107 l46 104 587 587 586 588 34 -32 33 -32 -663 -663z m-2416 -15 c-398 -399
-654 -648 -666 -648 -17 0 -18 5 -12 53 l7 52 637 637 637 638 22 -43 22 -42
-647 -647z m2992 391 l-179 -179 -65 0 -65 0 214 214 214 214 30 -35 30 -34
-179 -180z m-2303 160 l21 -42 -578 -578 -579 -579 -65 0 -65 0 620 620 c341
341 621 620 622 620 2 0 12 -19 24 -41z m2559 -80 c7 -12 -26 -51 -156 -180
l-164 -164 0 43 c0 37 -3 42 -22 42 -18 0 12 35 137 160 l160 160 18 -22 c10
-13 22 -30 27 -39z m-2495 -61 l16 -42 -508 -508 -508 -508 -65 0 -65 0 550
550 c302 303 553 550 556 550 4 0 14 -19 24 -42z m2564 -35 l23 -36 -206 -206
-206 -206 0 65 0 65 177 177 c98 98 180 178 183 178 3 0 16 -17 29 -37z
m-1509 -109 l-51 -109 -177 -177 -177 -178 -22 43 -22 42 247 247 c135 136
248 246 249 244 2 -2 -19 -52 -47 -112z m-995 10 l18 -46 -439 -439 -439 -439
-65 0 -65 0 485 485 c267 267 485 485 486 485 1 0 9 -21 19 -46z m2591 -48 c5
-15 -82 -107 -422 -447 l-429 -429 -65 0 -65 0 470 470 470 470 17 -23 c10
-12 20 -30 24 -41z m-2879 -503 l-372 -373 -65 0 -65 0 415 415 415 415 22
-43 22 -42 -372 -372z m2934 396 l21 -42 -363 -363 -364 -364 -65 0 -65 0 405
405 c223 223 406 405 407 405 2 0 12 -19 24 -41z m-1178 -441 l-328 -328 -65
0 -65 0 390 390 390 390 3 -62 3 -62 -328 -328z m-1342 321 l21 -42 -303 -303
-304 -304 -65 0 -65 0 345 345 c190 190 346 345 347 345 2 0 12 -19 24 -41z
m734 -31 c-75 -169 -84 -184 -148 -247 l-65 -63 -17 47 -18 46 134 135 c73 74
135 134 136 134 1 0 -9 -24 -22 -52z m1849 10 l16 -43 -292 -292 -293 -293
-65 0 -65 0 335 335 c184 184 338 335 341 335 3 0 13 -19 23 -42z m-876 -98
c37 0 36 -1 -228 -265 l-265 -265 -65 0 -65 0 290 290 c256 256 290 287 293
265 3 -22 8 -25 40 -25z m-1643 -22 l16 -42 -233 -233 -233 -233 -65 0 -65 0
275 275 c151 151 278 275 281 275 4 0 14 -19 24 -42z m1615 -243 l-265 -265
-65 0 -65 0 265 265 265 265 65 0 65 0 -265 -265z m957 212 l13 -42 -218 -217
-217 -218 -65 0 -65 0 265 265 c145 145 266 262 269 259 3 -3 11 -24 18 -47z
m-2512 -103 l18 -46 -164 -164 -164 -164 -65 0 -65 0 210 210 c115 116 210
210 211 210 1 0 9 -21 19 -46z m2428 -236 l-138 -138 -65 0 -65 0 190 190 190
190 13 -52 13 -51 -138 -139z m-1974 132 c-11 -30 -29 -41 -29 -18 0 10 28 48
36 48 2 0 -2 -13 -7 -30z m-467 -172 l-97 -98 -65 0 -65 0 140 140 140 140 22
-43 22 -42 -97 -97z m2601 60 l7 -53 -52 -52 -52 -53 -65 0 -66 0 105 105 c58
58 107 105 111 105 3 0 9 -24 12 -52z m-2462 -59 l21 -41 -28 -29 c-25 -26
-34 -29 -93 -29 l-65 0 69 70 c38 39 71 70 72 70 1 0 12 -19 24 -41z"/>
<path d="M5085 35 l-30 -30 24 -3 c30 -5 44 9 39 39 l-3 24 -30 -30z"/>
</g>
</svg>
