<?xml version="1.0" standalone="no"?>
<!DOCTYPE svg PUBLIC "-//W3C//DTD SVG 20010904//EN"
 "http://www.w3.org/TR/2001/REC-SVG-20010904/DTD/svg10.dtd">
<svg version="1.0" xmlns="http://www.w3.org/2000/svg"
 width="409.600000pt" height="409.600000pt" viewBox="0 0 409.600000 409.600000"
 preserveAspectRatio="xMidYMid meet">
<metadata>
Created by potrace 1.13, written by Peter Selinger 2001-2015
</metadata>
<g transform="translate(0.000000,409.600000) scale(0.080000,-0.080000)"
fill="#000000" stroke="none">
<path d="M84 5036 c-55 -55 -74 -81 -74 -100 0 -22 3 -25 18 -17 19 11 182
175 182 185 0 3 -12 6 -26 6 -19 0 -46 -20 -100 -74z"/>
<path d="M203 4958 c-174 -172 -196 -198 -191 -231 3 -19 32 5 192 163 103
102 192 193 197 203 8 14 5 17 -17 17 -21 0 -60 -33 -181 -152z"/>
<path d="M303 4858 c-140 -139 -264 -265 -275 -281 -10 -15 -18 -37 -16 -50 3
-18 49 23 292 263 158 157 292 293 297 303 8 14 5 17 -17 17 -22 0 -75 -47
-281 -252z"/>
<path d="M402 4758 c-194 -194 -362 -365 -373 -381 -11 -15 -19 -37 -17 -50 4
-18 67 40 392 363 213 212 392 393 397 403 8 14 5 17 -18 17 -22 0 -89 -62
-381 -352z"/>
<path d="M502 4658 c-249 -249 -462 -465 -473 -481 -11 -15 -19 -37 -17 -50 4
-18 84 57 492 463 268 267 492 493 497 503 8 14 5 17 -18 17 -22 0 -104 -76
-481 -452z"/>
<path d="M602 4558 c-304 -304 -562 -565 -573 -581 -11 -15 -19 -37 -17 -50 4
-18 101 75 592 563 323 322 592 593 597 603 8 14 5 17 -18 17 -23 0 -118 -91
-581 -552z"/>
<path d="M702 4458 c-359 -359 -662 -665 -673 -681 -11 -15 -19 -37 -17 -50 4
-18 118 92 692 663 378 377 692 693 697 703 8 14 5 17 -18 17 -23 0 -133 -106
-681 -652z"/>
<path d="M802 4358 c-414 -414 -762 -765 -773 -781 -11 -15 -19 -37 -17 -50 4
-18 136 109 792 763 433 432 792 793 797 803 8 14 5 17 -18 17 -23 0 -148
-120 -781 -752z"/>
<path d="M902 4258 c-469 -469 -862 -865 -873 -881 -11 -15 -19 -37 -17 -50 4
-18 153 126 892 863 488 487 892 893 897 903 8 14 5 17 -18 17 -23 0 -162
-135 -881 -852z"/>
<path d="M1002 4158 c-524 -524 -962 -965 -973 -981 -11 -15 -19 -37 -17 -50
4 -18 170 144 992 963 543 542 992 993 997 1003 8 14 5 17 -18 17 -23 0 -177
-149 -981 -952z"/>
<path d="M1102 4058 c-579 -579 -1062 -1065 -1073 -1081 -11 -15 -19 -37 -17
-50 4 -18 137 111 801 773 l797 795 -35 -85 c-19 -47 -35 -92 -35 -100 0 -8
-344 -359 -765 -780 -639 -639 -765 -770 -765 -793 0 -15 3 -27 7 -27 4 0 342
334 751 743 l743 742 -6 -70 -7 -70 -744 -745 c-620 -622 -744 -750 -744 -773
0 -15 3 -27 7 -27 4 0 339 331 744 736 l736 736 6 -58 5 -59 -749 -750 c-625
-626 -749 -755 -749 -778 0 -15 3 -27 7 -27 4 0 344 336 754 746 l746 746 13
-52 13 -52 -767 -767 c-639 -640 -766 -771 -766 -794 0 -15 3 -27 7 -27 4 0
353 345 775 767 422 422 769 765 771 763 2 -3 11 -23 20 -45 l15 -40 -794
-795 c-668 -669 -794 -800 -794 -823 0 -23 3 -26 18 -18 9 5 370 363 802 795
432 432 788 786 791 786 4 0 17 -17 29 -37 l21 -36 -830 -831 c-695 -695 -831
-836 -831 -859 0 -15 3 -27 7 -27 4 0 385 377 845 837 l838 838 29 -35 30 -35
-875 -875 c-731 -732 -874 -880 -874 -903 0 -15 3 -27 7 -27 4 0 405 397 890
882 l883 883 32 -33 33 -32 -340 -338 c-187 -186 -376 -365 -420 -399 -103
-80 -278 -254 -357 -357 -35 -45 -212 -232 -395 -417 -271 -273 -333 -341
-333 -362 0 -15 3 -27 7 -27 4 0 119 111 255 247 l248 247 -61 -124 -61 -125
-194 -196 c-154 -155 -194 -202 -194 -223 0 -14 3 -26 7 -26 4 0 81 73 171
163 91 89 162 155 159 146 -3 -9 -15 -50 -27 -90 -22 -73 -24 -76 -166 -220
-111 -113 -144 -153 -144 -173 0 -14 3 -26 7 -26 3 0 62 55 131 123 118 116
124 120 118 87 -4 -19 -9 -53 -13 -75 -5 -34 -23 -57 -124 -162 -90 -92 -119
-128 -119 -147 0 -14 3 -26 6 -26 4 0 54 46 112 103 l105 102 -6 -69 -7 -69
-105 -108 c-78 -80 -105 -114 -105 -133 0 -14 3 -26 6 -26 4 0 51 43 104 96
l97 95 5 -58 5 -58 -108 -112 c-82 -84 -109 -118 -109 -138 0 -37 16 -26 139
98 l103 104 39 -25 39 -26 -160 -162 c-126 -127 -160 -167 -160 -188 0 -22 3
-25 18 -17 9 5 93 86 186 180 l169 170 41 -16 c23 -9 43 -18 45 -20 3 -2 -88
-97 -202 -211 -114 -115 -207 -211 -207 -215 0 -4 12 -7 27 -7 21 0 68 42 234
207 l208 206 47 -18 46 -17 -181 -182 c-100 -100 -181 -185 -181 -189 0 -4 12
-7 26 -7 21 0 65 38 208 180 l182 180 48 -16 48 -16 -156 -157 c-86 -87 -156
-160 -156 -164 0 -4 12 -7 26 -7 21 0 61 34 184 156 l158 156 39 -12 c21 -7
42 -15 46 -17 5 -3 -50 -65 -122 -137 -72 -73 -131 -136 -131 -139 0 -4 12 -7
26 -7 20 0 57 31 158 130 73 72 139 130 147 130 8 0 31 -5 53 -11 l38 -11
-111 -112 c-61 -62 -111 -116 -111 -119 0 -4 12 -7 26 -7 19 0 54 28 139 111
l114 111 51 -12 51 -12 -90 -93 c-50 -51 -91 -95 -91 -99 0 -3 11 -6 25 -6 19
0 52 25 120 91 l94 91 45 -6 c25 -4 48 -11 50 -15 3 -4 -22 -34 -55 -67 -78
-77 -88 -94 -54 -94 18 0 48 22 105 76 74 71 81 75 112 69 74 -15 74 -12 14
-75 -31 -32 -56 -61 -56 -64 0 -3 11 -6 25 -6 16 0 46 20 89 60 l64 60 56 -6
56 -7 -45 -48 c-25 -26 -45 -51 -45 -54 0 -3 11 -5 24 -5 14 0 45 19 76 47 48
43 56 47 99 44 25 -2 49 -5 54 -8 4 -2 -6 -20 -23 -39 -36 -42 -37 -44 -6 -44
13 0 43 17 67 38 41 35 48 37 102 34 l58 -3 -27 -32 -27 -32 23 -3 c13 -2 37
8 60 27 32 25 48 31 88 31 59 0 66 -5 45 -36 -15 -23 -14 -24 7 -24 13 0 38
11 56 25 27 20 44 25 94 25 l60 0 -16 -25 c-16 -24 -16 -25 6 -25 13 0 38 11
56 25 27 20 44 25 94 25 l60 0 -16 -25 c-16 -24 -16 -25 6 -25 13 0 37 11 54
24 22 16 51 25 100 31 l69 7 -23 -29 -22 -28 22 -3 c14 -2 38 9 63 29 35 28
51 34 106 37 l65 5 -29 -34 c-28 -34 -28 -34 -6 -37 13 -2 37 8 57 25 20 15
45 35 57 45 12 9 50 19 86 22 l64 6 -42 -45 c-22 -24 -41 -47 -41 -50 0 -3 11
-5 24 -5 16 0 46 20 86 57 58 53 65 57 135 68 l75 11 -60 -62 c-33 -34 -60
-65 -60 -68 0 -3 11 -6 25 -6 18 0 50 23 108 78 81 78 83 79 160 94 l78 15
-86 -87 c-47 -48 -85 -90 -85 -94 0 -3 12 -6 26 -6 19 0 53 27 132 104 105
101 109 104 185 125 42 11 80 21 84 21 4 0 -46 -53 -110 -118 -64 -66 -117
-122 -117 -125 0 -4 12 -7 26 -7 20 0 59 32 169 141 l143 140 92 29 93 29
-161 -163 c-89 -89 -162 -165 -162 -169 0 -4 12 -7 26 -7 21 0 67 40 218 189
105 103 200 191 211 195 11 4 56 21 100 37 l80 30 -220 -222 c-186 -188 -217
-224 -198 -227 13 -2 33 4 45 12 31 22 744 733 775 773 14 19 23 41 21 55 -3
20 -16 11 -111 -81 l-107 -105 0 64 0 63 110 113 c82 84 110 119 110 138 0 14
-3 26 -6 26 -4 0 -55 -47 -114 -105 l-107 -106 -6 58 -6 57 119 122 c91 93
120 128 120 148 0 14 -3 26 -7 26 -3 0 -59 -52 -123 -116 l-117 -115 -11 53
-10 53 134 136 c103 105 134 143 134 163 0 14 -3 26 -7 26 -3 0 -66 -59 -139
-132 -86 -85 -135 -126 -138 -117 -2 8 -9 29 -15 48 l-11 35 155 157 c122 123
155 162 155 183 0 22 -3 25 -17 17 -10 -5 -83 -75 -163 -155 l-145 -146 -16
47 -16 48 178 181 c141 143 179 187 179 208 0 14 -3 26 -7 26 -4 0 -88 -81
-188 -181 l-182 -180 -18 46 -17 47 206 207 c165 167 206 213 206 235 0 22 -3
25 -17 17 -10 -5 -108 -100 -218 -210 l-200 -201 -22 43 -21 42 239 241 c194
195 239 246 239 268 0 22 -3 25 -17 17 -10 -5 -121 -114 -248 -240 -126 -127
-233 -231 -237 -231 -4 0 -16 17 -27 37 l-19 38 274 276 c222 223 274 281 274
302 0 15 -3 27 -7 27 -4 0 -134 -126 -288 -281 l-282 -280 -25 38 -26 38 314
316 c256 257 314 320 314 342 0 15 -3 27 -7 27 -4 0 -152 -144 -329 -321
l-321 -321 -28 37 -28 36 356 358 c292 292 357 362 357 384 0 15 -3 27 -7 27
-4 0 -172 -164 -373 -365 l-365 -365 -29 36 -28 36 401 402 c332 333 401 407
401 429 0 23 -3 26 -17 18 -10 -5 -198 -190 -418 -410 l-399 -401 -33 32 -33
32 450 451 c371 372 450 456 450 478 0 15 -3 27 -7 27 -4 0 -215 -207 -468
-460 l-460 -459 -35 29 -35 29 503 503 c418 420 502 508 502 531 0 23 -3 26
-17 18 -10 -5 -243 -235 -518 -510 -275 -276 -504 -501 -510 -501 -5 0 -23 12
-39 26 l-29 26 557 557 c465 465 556 561 556 584 0 23 -3 26 -17 18 -10 -5
-270 -262 -577 -570 l-560 -560 -37 27 -38 27 614 615 c515 516 615 620 615
643 0 23 -3 26 -17 18 -10 -5 -295 -287 -633 -625 -338 -339 -618 -616 -623
-616 -4 0 -23 10 -42 23 l-34 22 674 675 c566 567 675 680 675 703 0 23 -3 26
-17 18 -10 -5 -324 -316 -697 -689 l-679 -680 -44 21 -43 21 740 741 c617 618
740 745 740 768 0 15 -3 27 -7 27 -4 0 -348 -340 -764 -756 l-756 -756 -43 22
-43 22 807 807 c678 679 806 811 806 834 0 23 -3 26 -17 18 -10 -5 -384 -376
-832 -825 -755 -755 -816 -814 -838 -805 -13 5 -39 9 -56 9 -29 0 39 71 856
888 742 742 887 892 887 915 0 15 -3 27 -7 27 -4 0 -592 -584 -1305 -1297
l-1298 -1298 -32 33 -33 32 1338 1338 c1132 1132 1337 1342 1337 1365 0 23 -3
26 -17 18 -10 -5 -619 -611 -1353 -1345 l-1335 -1336 -32 32 -33 32 1385 1386
c1165 1165 1385 1390 1385 1413 0 15 -3 27 -7 27 -4 0 -392 -384 -861 -852
-769 -770 -847 -845 -798 -770 29 45 64 108 76 140 21 53 74 109 751 787 401
402 729 734 729 738 0 4 -12 7 -27 7 -23 0 -142 -114 -712 -682 -376 -376
-681 -675 -677 -665 3 10 9 44 12 75 l6 57 599 600 c330 330 599 604 599 608
0 4 -12 7 -27 7 -23 0 -124 -97 -595 -567 l-568 -568 0 65 0 65 486 485 c267
267 490 493 495 503 8 14 5 17 -18 17 -23 0 -106 -79 -499 -471 l-472 -471
-11 53 -12 53 411 411 c225 226 410 414 410 418 0 4 -12 7 -27 7 -22 0 -97
-70 -418 -390 l-390 -390 -17 48 -17 47 334 335 c184 185 335 339 335 343 0 4
-12 7 -27 7 -22 0 -86 -59 -345 -317 -174 -174 -319 -315 -321 -312 -2 2 -13
20 -25 39 l-21 36 260 259 c143 143 265 268 270 278 8 14 5 17 -17 17 -22 0
-75 -48 -283 -254 l-256 -255 -27 38 -27 37 200 200 c110 109 205 207 210 217
8 14 5 17 -17 17 -22 0 -67 -39 -226 -197 l-198 -197 -32 32 -32 32 157 158
c86 87 157 161 157 165 0 4 -12 7 -26 7 -20 0 -60 -33 -173 -145 -81 -80 -152
-145 -157 -145 -5 0 -22 12 -38 26 l-29 25 112 113 c61 62 111 116 111 119 0
4 -12 7 -26 7 -19 0 -53 -27 -133 -105 l-109 -106 -36 22 c-20 11 -36 24 -36
28 0 4 27 33 61 66 78 77 88 95 54 95 -17 0 -47 -21 -97 -69 l-73 -68 -44 18
-43 19 41 45 c22 24 41 47 41 50 0 3 -11 5 -24 5 -13 0 -43 -18 -70 -41 l-46
-41 -50 12 -50 12 21 26 21 27 -22 3 c-11 2 -35 -7 -53 -21 -28 -21 -40 -23
-89 -19 -52 4 -57 6 -47 23 8 16 6 19 -12 19 -11 0 -33 -8 -47 -19 -16 -11
-55 -21 -95 -26 l-69 -7 17 26 c17 26 17 26 -7 26 -15 0 -44 -16 -71 -40 -25
-22 -51 -40 -59 -40 -7 0 -50 -15 -96 -34 l-83 -34 65 68 c37 38 66 71 66 74
0 3 -12 6 -27 6 -23 0 -198 -170 -1081 -1052z m1108 307 l-375 -375 -3 37 c-7
83 -8 82 316 406 l308 307 64 0 65 0 -375 -375z m540 346 c0 -11 -889 -895
-895 -890 -3 3 -8 27 -11 53 l-7 48 407 407 408 408 49 -10 c27 -5 49 -12 49
-16z m-400 -4 c0 -1 -110 -112 -245 -247 -225 -225 -244 -241 -230 -202 40
115 122 231 222 315 62 52 253 153 253 134z m515 -34 l36 -17 -493 -493 -493
-493 -17 33 c-9 17 -17 39 -18 47 0 18 919 940 937 940 7 0 28 -8 48 -17z
m145 -88 c6 -7 -175 -195 -503 -523 l-513 -513 -27 38 -27 38 502 502 502 502
29 -17 c16 -9 32 -22 37 -27z m86 -81 l23 -30 -512 -512 -512 -512 -34 32 -33
31 513 513 c283 283 518 513 523 511 5 -2 20 -17 32 -33z m85 -110 l22 -36
-495 -495 -494 -494 -37 21 c-20 12 -37 25 -37 28 0 9 1003 1012 1012 1012 3
0 16 -16 29 -36z m73 -159 c5 -17 -76 -103 -447 -473 l-452 -452 -49 16 -48
17 483 484 c482 482 484 483 495 456 6 -16 14 -37 18 -48z m-346 -572 l-385
-385 -58 7 -57 8 433 433 434 434 9 -56 9 -56 -385 -385z m372 229 l-11 -68
-262 -262 -262 -261 -59 -10 c-33 -6 -67 -11 -75 -11 -9 0 139 155 329 345
189 189 346 342 348 340 2 -2 -1 -35 -8 -73z m-87 -242 c-59 -105 -170 -214
-275 -273 -48 -27 -36 -12 122 147 96 97 176 176 178 176 2 0 -9 -22 -25 -50z
m-1250 -504 l28 -20 -153 -154 -153 -153 -130 -65 -130 -65 244 245 c135 135
250 242 255 239 6 -4 24 -16 39 -27z m824 -423 l-448 -448 -31 34 -30 34 336
336 c319 319 340 337 404 364 37 15 99 49 137 76 39 27 72 49 75 50 3 0 -197
-200 -443 -446z m-677 330 c2 -2 -52 -59 -120 -128 l-123 -124 -28 15 c-16 8
-38 14 -51 14 -18 0 4 27 112 135 l134 134 35 -21 c20 -12 38 -23 41 -25z
m104 -39 l48 -17 -148 -148 -148 -149 -33 32 -33 32 132 133 c73 73 133 133
134 133 0 0 22 -7 48 -16z m190 -51 c15 -4 -18 -42 -164 -188 l-183 -183 -30
35 -30 34 159 160 c173 173 161 166 248 142z m141 -283 l-300 -301 -27 33
c-16 18 -28 35 -28 38 0 3 113 118 250 255 l250 250 68 11 c37 6 71 12 77 13
5 0 -125 -134 -290 -299z m-162 38 l-233 -233 -29 35 -30 35 197 198 197 197
65 0 65 0 -232 -232z m-653 -251 c0 -1 -221 -223 -491 -492 -529 -528 -517
-519 -388 -298 45 76 87 124 313 352 268 270 313 307 479 397 83 44 87 46 87
41z m793 -1010 l-978 -978 -45 6 c-25 4 -49 9 -54 12 -4 3 239 253 540 554
l549 549 48 0 c28 0 61 7 77 17 16 9 197 204 402 433 l373 417 33 -15 33 -16
-978 -979z m-728 933 l29 -31 -589 -589 c-324 -324 -590 -588 -592 -586 -1 1
9 40 23 87 l26 84 531 533 c293 292 534 532 538 532 3 0 18 -14 34 -30z m1825
-29 c0 -3 -429 -435 -954 -960 l-953 -953 -52 7 c-28 4 -51 10 -51 13 0 4 435
442 967 974 l967 967 38 -21 c21 -12 38 -24 38 -27z m-871 -168 c-168 -189
-165 -187 -179 -178 -8 5 39 59 141 161 85 85 155 154 157 154 2 0 -52 -62
-119 -137z m957 116 c19 -11 34 -24 34 -27 0 -4 -417 -424 -926 -933 l-927
-927 -41 5 c-22 3 -48 7 -56 9 -9 3 325 344 930 949 520 520 947 945 949 945
2 0 19 -9 37 -21z m-1796 -53 c0 -6 -297 -308 -660 -671 -363 -363 -660 -653
-660 -644 0 8 5 42 11 75 l10 59 622 622 621 622 28 -26 c15 -15 28 -32 28
-37z m1917 -34 l32 -28 -897 -896 -897 -896 -59 5 -58 6 918 918 c506 506 921
919 924 919 3 -1 19 -13 37 -28z m-1842 -44 l27 -31 -700 -700 c-598 -598
-702 -698 -721 -692 -16 5 -21 14 -21 43 0 35 28 64 687 724 378 379 691 688
695 688 3 0 18 -14 33 -32z m1950 -48 l29 -31 -854 -854 -855 -855 -51 0 c-28
0 -54 3 -58 7 -6 7 1742 1763 1755 1763 3 0 18 -14 34 -30z m-1843 -74 c9 -16
-75 -104 -662 -691 l-672 -672 -50 15 -49 16 693 693 c665 665 693 692 711
675 10 -9 23 -25 29 -36z m1943 -26 l29 -31 -299 -299 -300 -300 -65 0 -65 0
330 330 c181 182 332 330 336 330 3 0 18 -14 34 -30z m-1862 -63 l25 -34 -646
-646 -647 -647 -49 16 -48 17 663 663 c365 365 667 664 670 664 4 0 18 -15 32
-33z m1977 -71 c0 -6 -109 -120 -242 -253 l-243 -243 -65 0 -65 0 280 280 279
280 28 -27 c15 -15 28 -31 28 -37z m-1885 -32 l28 -36 -618 -618 -617 -617
-50 15 -49 16 638 638 c351 351 639 638 639 638 1 0 14 -16 29 -36z m1950 -51
l25 -38 -187 -187 -188 -188 -65 0 -65 0 225 225 c124 124 226 225 227 225 1
0 14 -17 28 -37z m-1853 -57 l27 -32 -587 -587 -587 -586 -45 11 c-25 6 -47
13 -50 15 -5 4 1202 1213 1210 1212 3 0 17 -15 32 -33z m1940 -73 l17 -29
-155 -155 c-137 -137 -154 -151 -154 -126 0 25 -3 27 -37 27 l-38 0 165 165
c105 105 168 161 174 155 6 -4 19 -21 28 -37z m-2371 -615 l-556 -557 -45 11
c-25 6 -47 13 -50 15 -2 2 254 262 569 577 l573 573 32 -31 32 -31 -555 -557z
m2438 494 l20 -39 -190 -189 -189 -189 0 65 0 65 162 162 c90 90 166 163 170
163 4 0 16 -17 27 -38z m65 -143 l15 -35 -462 -461 -462 -461 -66 -11 c-36 -6
-70 -11 -75 -11 -5 0 223 232 506 515 283 283 518 511 522 507 4 -4 14 -23 22
-43z m-1546 -596 l-443 -443 -65 0 -65 0 505 505 505 505 3 -62 3 -62 -443
-443z m1596 460 l16 -48 -361 -361 -361 -361 -57 -13 c-31 -6 -67 -14 -81 -17
-17 -4 110 130 400 421 234 234 426 426 427 426 0 0 8 -21 17 -47z m-1496
-560 l-343 -343 -65 0 -65 0 405 405 405 405 3 -62 3 -62 -343 -343z m1306
106 l-248 -248 -76 -20 c-42 -12 -81 -21 -86 -21 -5 0 135 144 311 320 l320
320 13 -52 13 -52 -247 -247z m-1104 -104 l-346 -345 -64 0 -65 0 345 345 345
345 65 0 65 0 -345 -345z m210 11 l-335 -335 -70 -6 -70 -7 340 341 340 341
65 0 65 0 -335 -334z m220 18 c-173 -173 -322 -319 -330 -323 -8 -5 -44 -12
-80 -16 l-65 -7 330 331 330 331 65 0 65 0 -315 -316z m943 195 l6 -46 -123
-121 c-67 -67 -127 -122 -132 -122 -5 0 -45 -11 -89 -25 l-80 -25 200 200
c110 110 202 196 206 192 3 -4 9 -28 12 -53z m17 -148 c0 -22 -5 -41 -12 -44
-7 -3 -38 -15 -68 -27 l-55 -21 65 65 c35 36 66 66 67 66 2 0 3 -18 3 -39z"/>
<path d="M4796 350 c-174 -173 -322 -323 -327 -332 -8 -15 -5 -18 17 -18 23 0
80 52 312 282 156 156 293 295 303 311 11 15 19 37 17 50 -4 18 -54 -28 -322
-293z"/>
<path d="M4896 250 c-119 -118 -222 -223 -227 -232 -8 -15 -5 -18 17 -18 21 0
65 37 211 183 205 202 226 227 221 260 -3 19 -37 -11 -222 -193z"/>
<path d="M4996 150 c-136 -133 -149 -150 -111 -150 18 0 49 23 111 82 102 98
127 130 122 161 -3 19 -19 7 -122 -93z"/>
<path d="M5085 35 l-30 -30 24 -3 c30 -5 44 9 39 39 l-3 24 -30 -30z"/>
</g>
</svg>
